<svg xmlns="http://www.w3.org/2000/svg" xmlns:xlink="http://www.w3.org/1999/xlink" width="500" zoomAndPan="magnify" viewBox="0 0 375 374.999991" height="500" preserveAspectRatio="xMidYMid meet" version="1.0"><defs><clipPath id="96b5e7208c"><path d="M 144 315.183594 L 374 315.183594 L 374 374 L 144 374 Z M 144 315.183594 " clip-rule="nonzero"/></clipPath><clipPath id="c8602b4c4b"><path d="M 30 176 L 63 176 L 63 265.378906 L 30 265.378906 Z M 30 176 " clip-rule="nonzero"/></clipPath><clipPath id="f65e971894"><path d="M 1 177 L 32 177 L 32 265.378906 L 1 265.378906 Z M 1 177 " clip-rule="nonzero"/></clipPath><clipPath id="bab0b32765"><path d="M 108 176 L 140 176 L 140 265.378906 L 108 265.378906 Z M 108 176 " clip-rule="nonzero"/></clipPath><clipPath id="ec9f986377"><path d="M 79 177 L 109 177 L 109 265.378906 L 79 265.378906 Z M 79 177 " clip-rule="nonzero"/></clipPath><clipPath id="8edb3e83d1"><path d="M 186 176 L 218 176 L 218 265.378906 L 186 265.378906 Z M 186 176 " clip-rule="nonzero"/></clipPath><clipPath id="5ac2f4828c"><path d="M 157 177 L 187 177 L 187 265.378906 L 157 265.378906 Z M 157 177 " clip-rule="nonzero"/></clipPath><clipPath id="f6449f0218"><path d="M 264 176 L 296 176 L 296 265.378906 L 264 265.378906 Z M 264 176 " clip-rule="nonzero"/></clipPath><clipPath id="1ae26596a4"><path d="M 235 177 L 265 177 L 265 265.378906 L 235 265.378906 Z M 235 177 " clip-rule="nonzero"/></clipPath><clipPath id="56390b1e68"><path d="M 341 176 L 374 176 L 374 265.378906 L 341 265.378906 Z M 341 176 " clip-rule="nonzero"/></clipPath><clipPath id="258b42b082"><path d="M 312 177 L 342 177 L 342 265.378906 L 312 265.378906 Z M 312 177 " clip-rule="nonzero"/></clipPath><clipPath id="7c1d56c1dc"><path d="M 312 80.128906 L 374 80.128906 L 374 116 L 312 116 Z M 312 80.128906 " clip-rule="nonzero"/></clipPath></defs><g clip-path="url(#96b5e7208c)"><path fill="#000000" d="M 152.585938 349.925781 C 154.707031 348.910156 157.019531 348.28125 159.332031 348.136719 C 159.671875 348.136719 159.910156 348.085938 160.199219 347.992188 C 160.78125 349.878906 161.261719 351.765625 161.453125 353.75 C 161.886719 356.699219 166.417969 355.972656 165.984375 353.070312 C 165.214844 346.199219 161.839844 339.910156 159.671875 333.378906 C 158.851562 331.636719 159.238281 328.78125 157.066406 328.152344 C 153.117188 327.234375 151.476562 338.941406 149.691406 341.894531 C 148.296875 345.714844 146.898438 349.539062 145.164062 353.214844 C 144.003906 354.136719 143.910156 356.214844 145.164062 357.136719 C 147.378906 358.925781 149.5 355.441406 151.378906 350.894531 C 151.863281 350.652344 152.296875 350.363281 152.632812 349.972656 Z M 156.199219 337.25 C 156.921875 339.378906 157.792969 341.457031 158.609375 343.585938 C 157.355469 343.683594 155.429688 344.023438 153.550781 344.605469 C 154.65625 341.265625 155.574219 338.3125 156.199219 337.25 Z M 192.6875 343.539062 C 192.738281 347.265625 184.542969 345.8125 181.796875 346.636719 C 180.734375 347.75 178.664062 347.265625 178.132812 345.8125 C 176.253906 340.683594 184.253906 342.28125 187.097656 341.507812 C 189.121094 341.363281 192.496094 340.585938 192.6875 343.539062 Z M 179.964844 357.039062 C 176.398438 355.925781 179.046875 349.828125 182.132812 352.394531 C 185.3125 352.054688 193.171875 347.3125 194.519531 351.765625 C 194.714844 353.023438 193.847656 354.183594 192.59375 354.378906 C 188.300781 354.714844 184.207031 357.523438 179.914062 357.039062 Z M 223.152344 337.25 C 224.214844 331.054688 217.417969 328.78125 212.355469 330.425781 C 212.257812 328.394531 208.933594 327.136719 207.679688 329.796875 C 206.332031 335.070312 206.910156 340.683594 207.921875 346.199219 C 207.292969 347.167969 207.390625 348.621094 208.402344 349.34375 C 208.402344 349.34375 208.5 349.34375 208.5 349.34375 C 209.03125 352.105469 209.609375 354.863281 209.992188 357.523438 C 210.8125 360.378906 215.199219 359.070312 214.378906 356.265625 C 213.996094 353.84375 213.511719 351.425781 213.03125 349.007812 C 217.65625 347.070312 221.996094 341.070312 223.152344 337.199219 Z M 212.210938 344.167969 C 212.019531 342.863281 211.875 341.605469 211.730469 340.296875 C 213.414062 338.84375 211.054688 337.152344 212.257812 335.796875 C 213.65625 334.105469 217.464844 333.863281 218.667969 335.796875 C 218.140625 339.28125 215.007812 342.085938 212.210938 344.214844 Z M 244.503906 358.683594 C 233.226562 355.199219 233.707031 337.925781 240.503906 330.28125 C 244.503906 326.023438 248.746094 334.539062 243.011719 334.492188 C 239.445312 340.152344 238.527344 350.363281 245.035156 354.085938 C 247.976562 354.378906 247.445312 359.023438 244.503906 358.636719 Z M 254.820312 340.105469 C 255.207031 336.957031 260.21875 337.878906 259.398438 340.925781 C 259.351562 344.605469 259.542969 348.378906 259.738281 352.105469 C 260.652344 353.894531 258.582031 355.972656 256.796875 355.152344 C 253.710938 353.363281 255.304688 343.734375 254.820312 340.105469 Z M 282.875 348.039062 C 283.019531 349.152344 283.261719 350.214844 283.644531 351.234375 C 285.1875 353.75 281.234375 356.121094 279.742188 353.554688 C 279.066406 351.957031 278.585938 350.265625 278.296875 348.472656 C 277.089844 348.570312 276.125 348.714844 275.546875 348.910156 C 274.003906 348.957031 272.753906 347.214844 273.378906 345.765625 C 274.148438 344.070312 276.125 344.214844 277.8125 344.023438 C 277.765625 342.765625 277.714844 341.554688 277.714844 340.34375 C 278.585938 336.957031 283.644531 339.28125 282.199219 342.183594 C 282.246094 342.570312 282.34375 342.957031 282.390625 343.34375 C 286.105469 342.570312 290.875 341.214844 291.453125 344.214844 C 292.082031 346.636719 287.40625 347.507812 282.875 347.992188 Z M 307.410156 323.3125 C 309.578125 321.183594 318.109375 318.8125 318.351562 323.507812 C 318.207031 324.765625 317.050781 325.636719 315.84375 325.539062 C 314.109375 325.539062 311.988281 325.441406 310.589844 326.605469 C 308.613281 329.699219 312.757812 336.28125 308.46875 337.734375 C 307.457031 337.878906 306.398438 337.34375 306.011719 336.378906 C 305.289062 332.652344 301.914062 324.425781 307.410156 323.265625 Z M 322.832031 347.214844 C 316.328125 350.023438 308.46875 351.085938 301.382812 352.007812 C 298.492188 351.621094 298.925781 347.214844 301.816406 347.457031 C 308.371094 346.636719 314.351562 345.039062 320.664062 343.585938 C 322.59375 343.199219 324.085938 345.714844 322.832031 347.214844 Z M 316.183594 372.28125 C 315.023438 369.378906 315.410156 365.992188 313.917969 363.183594 C 313.964844 363.28125 314.011719 363.328125 314.0625 363.425781 C 313.335938 361.828125 311.074219 363.183594 310.347656 364.199219 C 309.191406 365.941406 309.964844 368.167969 309.386719 370.054688 C 308.371094 373.199219 304.324219 371.507812 304.660156 368.554688 C 304.757812 365.652344 303.503906 362.3125 305.09375 359.699219 C 305.769531 358.199219 308.035156 357.910156 309 359.3125 C 316.953125 354.425781 319.699219 363.8125 320.183594 370.105469 C 321.820312 372.8125 317.484375 375.183594 316.132812 372.234375 Z M 328.28125 333.667969 C 323.796875 330.863281 329.628906 325.152344 334.789062 334.394531 C 338.015625 337.394531 340.332031 356.3125 334.015625 355.78125 C 329.246094 354.570312 338.5 342.714844 328.28125 333.667969 Z M 357.539062 330.957031 C 357.636719 333.910156 353.007812 334.007812 352.960938 331.054688 C 353.199219 327.234375 353.683594 317.894531 348.957031 325.734375 C 347.996094 328.152344 349.972656 333.28125 345.96875 333.28125 C 342.835938 332.652344 344.089844 328.441406 343.414062 326.121094 C 342.453125 324.621094 343.65625 322.199219 345.535156 322.34375 C 347.367188 319.007812 352.042969 316.78125 355.371094 319.296875 C 358.792969 322.199219 357.347656 327.085938 357.492188 330.957031 Z M 362.601562 324.667969 C 361.058594 325.152344 359.417969 325.683594 358.453125 324.039062 C 357.347656 322.394531 358.792969 320.023438 360.71875 320.457031 C 361.347656 320.214844 362.019531 320.070312 362.695312 319.925781 C 362.695312 318.957031 362.746094 317.992188 362.695312 317.121094 C 362.984375 315.910156 364.285156 315.183594 365.492188 315.472656 C 366.890625 316.054688 367.277344 317.554688 367.371094 319.394531 C 369.347656 319.152344 371.757812 317.652344 373.15625 319.394531 C 374.023438 320.457031 373.6875 322.199219 372.433594 322.828125 C 370.792969 323.554688 369.011719 323.75 367.226562 323.941406 C 367.226562 325.105469 367.277344 326.214844 367.613281 327.039062 C 370.648438 323.894531 374.746094 326.121094 372.046875 329.507812 C 370.265625 330.957031 367.710938 332.554688 365.445312 331.296875 C 363.324219 329.75 362.746094 327.328125 362.601562 324.714844 Z M 372.386719 322.78125 C 372.386719 322.78125 372.386719 322.78125 372.335938 322.78125 Z M 372.386719 322.78125 " fill-opacity="1" fill-rule="nonzero"/></g><g clip-path="url(#c8602b4c4b)"><path fill="#63afb0" d="M 31.058594 194.546875 L 62.246094 176.21875 L 61.753906 247.050781 L 30.5625 265.378906 Z M 31.058594 194.546875 " fill-opacity="1" fill-rule="nonzero"/></g><path fill="#6bbdbe" d="M 1.847656 177.707031 L 33.039062 159.378906 L 62.246094 176.21875 L 31.058594 194.546875 Z M 1.847656 177.707031 " fill-opacity="1" fill-rule="nonzero"/><g clip-path="url(#f65e971894)"><path fill="#4e8889" d="M 31.058594 194.546875 L 30.5625 265.378906 L 1.847656 248.539062 L 1.847656 177.707031 Z M 31.058594 194.546875 " fill-opacity="1" fill-rule="nonzero"/></g><g clip-path="url(#bab0b32765)"><path fill="#63afb0" d="M 108.785156 194.546875 L 139.972656 176.21875 L 139.972656 247.050781 L 108.289062 265.378906 Z M 108.785156 194.546875 " fill-opacity="1" fill-rule="nonzero"/></g><path fill="#6bbdbe" d="M 79.574219 177.707031 L 110.765625 159.378906 L 139.972656 176.21875 L 108.785156 194.546875 Z M 79.574219 177.707031 " fill-opacity="1" fill-rule="nonzero"/><g clip-path="url(#ec9f986377)"><path fill="#4e8889" d="M 108.785156 194.546875 L 108.289062 265.378906 L 79.574219 248.539062 L 79.574219 177.707031 Z M 108.785156 194.546875 " fill-opacity="1" fill-rule="nonzero"/></g><g clip-path="url(#8edb3e83d1)"><path fill="#63afb0" d="M 186.511719 194.546875 L 217.699219 176.21875 L 217.699219 247.050781 L 186.511719 265.378906 Z M 186.511719 194.546875 " fill-opacity="1" fill-rule="nonzero"/></g><path fill="#6bbdbe" d="M 157.300781 177.707031 L 188.488281 159.378906 L 217.699219 176.21875 L 186.511719 194.546875 Z M 157.300781 177.707031 " fill-opacity="1" fill-rule="nonzero"/><g clip-path="url(#5ac2f4828c)"><path fill="#4e8889" d="M 186.511719 194.546875 L 186.511719 265.378906 L 157.300781 248.539062 L 157.300781 177.707031 Z M 186.511719 194.546875 " fill-opacity="1" fill-rule="nonzero"/></g><g clip-path="url(#f6449f0218)"><path fill="#63afb0" d="M 264.234375 194.546875 L 295.425781 176.21875 L 295.425781 247.050781 L 264.234375 265.378906 Z M 264.234375 194.546875 " fill-opacity="1" fill-rule="nonzero"/></g><path fill="#6bbdbe" d="M 235.027344 177.707031 L 266.710938 159.378906 L 295.425781 176.21875 L 264.234375 194.546875 Z M 235.027344 177.707031 " fill-opacity="1" fill-rule="nonzero"/><g clip-path="url(#1ae26596a4)"><path fill="#4e8889" d="M 264.234375 194.546875 L 264.234375 265.378906 L 235.027344 248.539062 L 235.027344 177.707031 Z M 264.234375 194.546875 " fill-opacity="1" fill-rule="nonzero"/></g><g clip-path="url(#56390b1e68)"><path fill="#63afb0" d="M 341.960938 194.546875 L 373.152344 176.21875 L 373.152344 247.050781 L 341.960938 265.378906 Z M 341.960938 194.546875 " fill-opacity="1" fill-rule="nonzero"/></g><path fill="#6bbdbe" d="M 313.246094 177.707031 L 344.4375 159.378906 L 373.152344 176.21875 L 341.960938 194.546875 Z M 313.246094 177.707031 " fill-opacity="1" fill-rule="nonzero"/><g clip-path="url(#258b42b082)"><path fill="#4e8889" d="M 341.960938 194.546875 L 341.960938 265.378906 L 312.753906 248.539062 L 313.246094 177.707031 Z M 341.960938 194.546875 " fill-opacity="1" fill-rule="nonzero"/></g><path fill="#3ba3a5" d="M 31.058594 183.652344 L 62.246094 165.324219 L 62.246094 173.25 L 31.058594 191.574219 Z M 31.058594 183.652344 " fill-opacity="1" fill-rule="nonzero"/><path fill="#40b0b2" d="M 1.847656 166.808594 L 33.039062 148.484375 L 62.246094 165.324219 L 31.058594 183.652344 Z M 1.847656 166.808594 " fill-opacity="1" fill-rule="nonzero"/><path fill="#2e8082" d="M 31.058594 183.652344 L 31.058594 191.574219 L 1.847656 174.734375 L 1.847656 166.808594 Z M 31.058594 183.652344 " fill-opacity="1" fill-rule="nonzero"/><path fill="#3ba3a5" d="M 108.785156 183.652344 L 139.972656 165.324219 L 139.972656 173.25 L 108.785156 191.574219 Z M 108.785156 183.652344 " fill-opacity="1" fill-rule="nonzero"/><path fill="#40b0b2" d="M 79.574219 166.808594 L 110.765625 148.484375 L 139.972656 165.324219 L 108.785156 183.652344 Z M 79.574219 166.808594 " fill-opacity="1" fill-rule="nonzero"/><path fill="#2e8082" d="M 108.785156 183.652344 L 108.785156 191.574219 L 79.574219 174.734375 L 79.574219 166.808594 Z M 108.785156 183.652344 " fill-opacity="1" fill-rule="nonzero"/><path fill="#3ba3a5" d="M 186.511719 183.652344 L 217.699219 165.324219 L 217.699219 173.25 L 186.511719 191.574219 Z M 186.511719 183.652344 " fill-opacity="1" fill-rule="nonzero"/><path fill="#40b0b2" d="M 157.300781 166.808594 L 188.488281 148.484375 L 217.699219 165.324219 L 186.511719 183.652344 Z M 157.300781 166.808594 " fill-opacity="1" fill-rule="nonzero"/><path fill="#2e8082" d="M 186.511719 183.652344 L 186.511719 191.574219 L 157.300781 174.734375 L 157.300781 166.808594 Z M 186.511719 183.652344 " fill-opacity="1" fill-rule="nonzero"/><path fill="#3ba3a5" d="M 264.234375 183.652344 L 295.425781 165.324219 L 295.425781 173.25 L 264.234375 191.574219 Z M 264.234375 183.652344 " fill-opacity="1" fill-rule="nonzero"/><path fill="#40b0b2" d="M 235.027344 166.808594 L 266.214844 148.484375 L 295.425781 165.324219 L 264.234375 183.652344 Z M 235.027344 166.808594 " fill-opacity="1" fill-rule="nonzero"/><path fill="#2e8082" d="M 264.234375 183.652344 L 264.234375 191.574219 L 235.027344 174.734375 L 235.027344 166.808594 Z M 264.234375 183.652344 " fill-opacity="1" fill-rule="nonzero"/><path fill="#3ba3a5" d="M 341.960938 183.652344 L 373.152344 165.324219 L 373.152344 173.25 L 341.960938 191.574219 Z M 341.960938 183.652344 " fill-opacity="1" fill-rule="nonzero"/><path fill="#40b0b2" d="M 312.753906 166.808594 L 343.941406 148.484375 L 373.152344 165.324219 L 341.960938 183.652344 Z M 312.753906 166.808594 " fill-opacity="1" fill-rule="nonzero"/><path fill="#2e8082" d="M 341.960938 183.652344 L 341.960938 191.574219 L 312.753906 174.734375 L 312.753906 166.808594 Z M 341.960938 183.652344 " fill-opacity="1" fill-rule="nonzero"/><path fill="#12989a" d="M 108.785156 170.277344 L 139.972656 152.445312 L 139.972656 163.34375 L 108.785156 181.175781 Z M 108.785156 170.277344 " fill-opacity="1" fill-rule="nonzero"/><path fill="#13a4a6" d="M 79.574219 153.929688 L 110.765625 135.605469 L 139.972656 152.445312 L 108.785156 170.277344 Z M 79.574219 153.929688 " fill-opacity="1" fill-rule="nonzero"/><path fill="#0e7a7b" d="M 108.785156 170.277344 L 108.785156 181.175781 L 79.574219 164.828125 L 79.574219 153.929688 Z M 108.785156 170.277344 " fill-opacity="1" fill-rule="nonzero"/><path fill="#12989a" d="M 186.511719 170.277344 L 217.699219 152.445312 L 217.699219 163.34375 L 186.511719 181.175781 Z M 186.511719 170.277344 " fill-opacity="1" fill-rule="nonzero"/><path fill="#13a4a6" d="M 157.300781 153.929688 L 188.488281 135.605469 L 217.699219 152.445312 L 186.511719 170.277344 Z M 157.300781 153.929688 " fill-opacity="1" fill-rule="nonzero"/><path fill="#0e7a7b" d="M 186.511719 170.277344 L 186.511719 181.175781 L 157.300781 164.828125 L 157.300781 153.929688 Z M 186.511719 170.277344 " fill-opacity="1" fill-rule="nonzero"/><path fill="#12989a" d="M 264.234375 170.277344 L 295.425781 152.445312 L 295.425781 163.34375 L 264.234375 181.175781 Z M 264.234375 170.277344 " fill-opacity="1" fill-rule="nonzero"/><path fill="#13a4a6" d="M 235.027344 153.929688 L 266.214844 135.605469 L 295.425781 152.445312 L 264.234375 170.277344 Z M 235.027344 153.929688 " fill-opacity="1" fill-rule="nonzero"/><path fill="#0e7a7b" d="M 264.234375 170.277344 L 264.234375 181.175781 L 235.027344 164.828125 L 235.027344 153.929688 Z M 264.234375 170.277344 " fill-opacity="1" fill-rule="nonzero"/><path fill="#12989a" d="M 341.960938 170.277344 L 373.152344 152.445312 L 373.152344 163.34375 L 341.960938 181.175781 Z M 341.960938 170.277344 " fill-opacity="1" fill-rule="nonzero"/><path fill="#13a4a6" d="M 312.753906 153.929688 L 343.941406 135.605469 L 373.152344 152.445312 L 341.960938 170.277344 Z M 312.753906 153.929688 " fill-opacity="1" fill-rule="nonzero"/><path fill="#0e7a7b" d="M 341.960938 170.277344 L 341.960938 181.175781 L 312.753906 164.828125 L 312.753906 153.929688 Z M 341.960938 170.277344 " fill-opacity="1" fill-rule="nonzero"/><path fill="#307e80" d="M 186.511719 154.425781 L 217.699219 136.59375 L 217.699219 149.472656 L 186.511719 167.800781 Z M 186.511719 154.425781 " fill-opacity="1" fill-rule="nonzero"/><path fill="#1f8789" d="M 157.300781 137.585938 L 188.488281 119.753906 L 217.699219 136.59375 L 186.511719 154.425781 Z M 157.300781 137.585938 " fill-opacity="1" fill-rule="nonzero"/><path fill="#036768" d="M 186.511719 154.425781 L 186.511719 167.800781 L 157.300781 150.960938 L 157.300781 137.585938 Z M 186.511719 154.425781 " fill-opacity="1" fill-rule="nonzero"/><path fill="#307e80" d="M 264.234375 154.425781 L 295.425781 136.59375 L 295.425781 149.472656 L 264.234375 167.800781 Z M 264.234375 154.425781 " fill-opacity="1" fill-rule="nonzero"/><path fill="#1f8789" d="M 235.027344 137.585938 L 266.214844 119.753906 L 295.425781 136.59375 L 264.234375 154.425781 Z M 235.027344 137.585938 " fill-opacity="1" fill-rule="nonzero"/><path fill="#036768" d="M 264.234375 154.425781 L 264.234375 167.800781 L 235.027344 150.960938 L 235.027344 137.585938 Z M 264.234375 154.425781 " fill-opacity="1" fill-rule="nonzero"/><path fill="#307e80" d="M 341.960938 154.425781 L 373.152344 136.59375 L 373.152344 149.472656 L 341.960938 167.800781 Z M 341.960938 154.425781 " fill-opacity="1" fill-rule="nonzero"/><path fill="#1f8789" d="M 312.753906 137.585938 L 343.941406 119.753906 L 373.152344 136.59375 L 341.960938 154.425781 Z M 312.753906 137.585938 " fill-opacity="1" fill-rule="nonzero"/><path fill="#036768" d="M 341.960938 154.425781 L 341.960938 167.800781 L 312.753906 150.960938 L 312.753906 137.585938 Z M 341.960938 154.425781 " fill-opacity="1" fill-rule="nonzero"/><path fill="#0c6667" d="M 264.234375 137.585938 L 295.425781 119.257812 L 295.425781 133.128906 L 264.234375 151.453125 Z M 264.234375 137.585938 " fill-opacity="1" fill-rule="nonzero"/><path fill="#216b6c" d="M 235.027344 120.746094 L 266.214844 102.417969 L 295.425781 119.257812 L 264.234375 137.585938 Z M 235.027344 120.746094 " fill-opacity="1" fill-rule="nonzero"/><path fill="#094d4e" d="M 264.234375 137.585938 L 264.234375 151.453125 L 235.027344 134.613281 L 235.027344 120.746094 Z M 264.234375 137.585938 " fill-opacity="1" fill-rule="nonzero"/><path fill="#0c6667" d="M 341.960938 137.585938 L 373.152344 119.257812 L 373.152344 133.128906 L 341.960938 151.453125 Z M 341.960938 137.585938 " fill-opacity="1" fill-rule="nonzero"/><path fill="#216b6c" d="M 312.753906 120.746094 L 343.941406 102.417969 L 373.152344 119.257812 L 341.960938 137.585938 Z M 312.753906 120.746094 " fill-opacity="1" fill-rule="nonzero"/><path fill="#094d4e" d="M 341.960938 137.585938 L 341.960938 151.453125 L 312.753906 134.613281 L 312.753906 120.746094 Z M 341.960938 137.585938 " fill-opacity="1" fill-rule="nonzero"/><path fill="#000000" d="M 341.960938 115.296875 L 373.152344 96.96875 L 373.152344 115.296875 L 341.960938 133.621094 Z M 341.960938 115.296875 " fill-opacity="1" fill-rule="nonzero"/><g clip-path="url(#7c1d56c1dc)"><path fill="#000000" d="M 312.753906 98.457031 L 343.941406 80.128906 L 373.152344 96.96875 L 341.960938 115.296875 Z M 312.753906 98.457031 " fill-opacity="1" fill-rule="nonzero"/></g><path fill="#000000" d="M 341.960938 115.296875 L 341.960938 133.621094 L 312.753906 116.78125 L 312.753906 98.457031 Z M 341.960938 115.296875 " fill-opacity="1" fill-rule="nonzero"/><path fill="#ffffff" d="M 30.066406 162.351562 C 30.066406 162.847656 30.066406 163.34375 30.066406 163.835938 C 30.066406 164.332031 29.574219 164.828125 29.574219 165.324219 C 29.078125 165.820312 29.078125 165.820312 28.582031 166.3125 C 28.085938 166.3125 27.59375 166.808594 27.097656 166.808594 C 26.601562 166.808594 26.105469 166.808594 25.613281 166.3125 C 25.117188 166.3125 25.117188 165.820312 24.621094 165.324219 C 24.125 164.828125 24.125 164.332031 24.125 163.835938 C 24.125 163.34375 24.125 162.847656 24.125 162.351562 C 24.125 161.855469 24.125 161.359375 24.125 160.867188 C 24.125 160.371094 24.621094 159.875 24.621094 159.378906 C 25.117188 158.882812 25.117188 158.882812 25.613281 158.390625 C 26.105469 158.390625 26.601562 157.894531 27.097656 157.894531 C 27.59375 157.894531 28.085938 157.894531 28.582031 158.390625 C 29.078125 158.390625 29.078125 158.882812 29.574219 159.378906 C 30.066406 159.875 30.066406 160.371094 30.066406 160.867188 C 30.066406 161.359375 30.066406 161.855469 30.066406 162.351562 Z M 25.117188 162.351562 C 25.117188 163.34375 25.117188 163.835938 25.613281 164.332031 C 26.105469 164.828125 26.105469 164.828125 26.601562 164.828125 C 27.59375 164.828125 28.085938 163.835938 28.085938 162.351562 C 28.085938 160.867188 27.59375 159.875 26.601562 159.875 C 26.105469 159.875 25.613281 159.875 25.613281 160.371094 C 25.613281 160.867188 25.117188 161.359375 25.117188 162.351562 Z M 36.503906 158.390625 L 28.085938 172.257812 L 26.601562 172.257812 L 35.019531 158.390625 Z M 39.472656 168.296875 C 39.472656 168.789062 39.472656 169.285156 39.472656 169.78125 C 39.472656 170.277344 38.980469 170.773438 38.980469 171.265625 C 38.484375 171.761719 38.484375 171.761719 37.988281 172.257812 C 37.492188 172.257812 37 172.753906 36.503906 172.753906 C 36.007812 172.753906 35.511719 172.753906 35.019531 172.257812 C 34.523438 172.257812 34.523438 171.761719 34.027344 171.265625 C 33.53125 170.773438 33.53125 170.277344 33.53125 169.78125 C 33.53125 169.285156 33.53125 168.789062 33.53125 168.296875 C 33.53125 167.800781 33.53125 167.304688 33.53125 166.808594 C 33.53125 166.3125 34.027344 165.820312 34.027344 165.324219 C 34.523438 164.828125 34.523438 164.828125 35.019531 164.332031 C 35.511719 164.332031 36.007812 163.835938 36.503906 163.835938 C 37 163.835938 37.492188 163.835938 37.988281 164.332031 C 38.484375 164.332031 38.484375 164.828125 38.980469 165.324219 C 39.472656 165.820312 39.472656 166.3125 39.472656 166.808594 C 39.472656 167.304688 39.472656 167.800781 39.472656 168.296875 Z M 34.523438 168.296875 C 34.523438 169.285156 34.523438 169.78125 35.019531 170.277344 C 35.511719 170.773438 35.511719 170.773438 36.007812 170.773438 C 37 170.773438 37.492188 169.78125 37.492188 168.296875 C 37.492188 166.808594 37 165.820312 36.007812 165.820312 C 35.511719 165.820312 35.019531 165.820312 35.019531 166.3125 C 34.523438 166.808594 34.523438 167.800781 34.523438 168.296875 Z M 34.523438 168.296875 " fill-opacity="1" fill-rule="nonzero"/><path fill="#ffffff" d="M 108.289062 148.484375 C 108.289062 148.976562 108.289062 149.472656 108.289062 149.96875 C 108.289062 150.464844 107.792969 150.960938 107.792969 151.453125 C 107.296875 151.949219 107.296875 151.949219 106.804688 152.445312 C 106.308594 152.445312 105.8125 152.941406 105.320312 152.941406 C 104.824219 152.941406 104.328125 152.941406 103.832031 152.445312 C 103.339844 152.445312 103.339844 151.949219 102.84375 151.453125 C 102.347656 150.960938 102.347656 150.464844 102.347656 149.96875 C 102.347656 149.472656 102.347656 148.976562 102.347656 148.484375 C 102.347656 147.988281 102.347656 147.492188 102.347656 146.996094 C 102.347656 146.5 102.84375 146.007812 102.84375 145.511719 C 103.339844 145.015625 103.339844 145.015625 103.832031 144.519531 C 104.328125 144.519531 104.824219 144.023438 105.320312 144.023438 C 105.8125 144.023438 106.308594 144.023438 106.804688 144.519531 C 107.296875 144.519531 107.296875 145.015625 107.792969 145.511719 C 108.289062 146.007812 108.289062 146.5 108.289062 146.996094 C 108.289062 147.492188 108.289062 147.988281 108.289062 148.484375 Z M 103.832031 148.484375 C 103.832031 149.472656 103.832031 149.96875 104.328125 150.464844 C 104.824219 150.960938 104.824219 150.960938 105.316406 150.960938 C 106.308594 150.960938 106.804688 149.96875 106.804688 148.484375 C 106.804688 146.996094 106.308594 146.007812 105.316406 146.007812 C 104.824219 146.007812 104.328125 146.007812 104.328125 146.5 C 103.832031 146.996094 103.832031 147.988281 103.832031 148.484375 Z M 115.21875 145.015625 L 106.804688 158.882812 L 105.320312 158.882812 L 113.734375 145.015625 Z M 117.695312 154.921875 C 117.695312 155.417969 117.695312 155.914062 117.695312 156.40625 C 117.695312 156.902344 117.199219 157.398438 117.199219 157.894531 C 116.703125 158.390625 116.703125 158.390625 116.210938 158.882812 C 115.714844 158.882812 115.21875 159.378906 114.726562 159.378906 C 114.230469 159.378906 113.734375 159.378906 113.238281 158.882812 C 112.746094 158.882812 112.746094 158.390625 112.25 157.894531 C 111.753906 157.398438 111.753906 156.902344 111.753906 156.40625 C 111.753906 155.914062 111.753906 155.417969 111.753906 154.921875 C 111.753906 154.425781 111.753906 153.929688 111.753906 153.4375 C 111.753906 152.941406 112.25 152.445312 112.25 151.949219 C 112.746094 151.453125 112.746094 151.453125 113.238281 150.960938 C 113.734375 150.960938 114.230469 150.464844 114.726562 150.464844 C 115.21875 150.464844 115.714844 150.464844 116.210938 150.960938 C 116.703125 150.960938 116.703125 151.453125 117.199219 151.949219 C 117.695312 152.445312 117.695312 152.941406 117.695312 153.4375 C 117.695312 153.929688 117.695312 154.425781 117.695312 154.921875 Z M 112.746094 154.921875 C 112.746094 155.914062 112.746094 156.40625 113.238281 156.902344 C 113.734375 157.398438 113.734375 157.398438 114.230469 157.398438 C 115.21875 157.398438 115.714844 156.40625 115.714844 154.921875 C 115.714844 153.4375 115.21875 152.445312 114.230469 152.445312 C 113.734375 152.445312 113.238281 152.445312 113.238281 152.941406 C 113.238281 153.4375 112.746094 153.929688 112.746094 154.921875 Z M 112.746094 154.921875 " fill-opacity="1" fill-rule="nonzero"/><path fill="#ffffff" d="M 186.015625 133.621094 C 186.015625 134.117188 186.015625 134.613281 186.015625 135.109375 C 186.015625 135.605469 185.519531 136.101562 185.519531 136.59375 C 185.023438 137.089844 185.023438 137.089844 184.53125 137.585938 C 184.035156 137.585938 183.539062 138.082031 183.042969 138.082031 C 182.550781 138.082031 182.054688 138.082031 181.558594 137.585938 C 181.0625 137.585938 181.0625 137.089844 180.570312 136.59375 C 180.074219 136.101562 180.074219 135.605469 180.074219 135.109375 C 180.074219 134.613281 180.074219 134.117188 180.074219 133.621094 C 180.074219 133.128906 180.074219 132.632812 180.074219 132.136719 C 180.074219 131.640625 180.570312 131.144531 180.570312 130.652344 C 181.0625 130.15625 181.0625 130.15625 181.558594 129.660156 C 182.054688 129.660156 182.550781 129.164062 183.042969 129.164062 C 183.539062 129.164062 184.035156 129.164062 184.53125 129.660156 C 185.023438 129.660156 185.023438 130.15625 185.519531 130.652344 C 186.015625 131.144531 186.015625 131.640625 186.015625 132.136719 C 186.015625 132.632812 186.015625 133.128906 186.015625 133.621094 Z M 181.558594 133.621094 C 181.558594 134.613281 181.558594 135.109375 182.054688 135.605469 C 182.550781 136.101562 182.550781 136.101562 183.042969 136.101562 C 184.035156 136.101562 184.53125 135.109375 184.53125 133.621094 C 184.53125 132.136719 184.035156 131.144531 183.042969 131.144531 C 182.550781 131.144531 182.054688 131.144531 182.054688 131.640625 C 181.558594 132.136719 181.558594 132.632812 181.558594 133.621094 Z M 192.945312 130.15625 L 184.53125 144.023438 L 182.550781 144.023438 L 190.964844 130.15625 Z M 195.421875 140.0625 C 195.421875 140.558594 195.421875 141.054688 195.421875 141.546875 C 195.421875 142.042969 194.925781 142.539062 194.925781 143.035156 C 194.429688 143.53125 194.429688 143.53125 193.9375 144.023438 C 193.441406 144.023438 192.945312 144.519531 192.449219 144.519531 C 191.957031 144.519531 191.460938 144.519531 190.964844 144.023438 C 190.46875 144.023438 190.46875 143.53125 189.976562 143.035156 C 189.480469 142.539062 189.480469 142.042969 189.480469 141.546875 C 189.480469 141.054688 189.480469 140.558594 189.480469 140.0625 C 189.480469 139.566406 189.480469 139.070312 189.480469 138.578125 C 189.480469 138.082031 189.976562 137.585938 189.976562 137.089844 C 190.46875 136.59375 190.46875 136.59375 190.964844 136.101562 C 191.460938 136.101562 191.957031 135.605469 192.449219 135.605469 C 192.945312 135.605469 193.441406 135.605469 193.9375 136.101562 C 194.429688 136.101562 194.429688 136.59375 194.925781 137.089844 C 195.421875 137.585938 195.421875 138.082031 195.421875 138.578125 C 195.421875 138.578125 195.421875 139.070312 195.421875 140.0625 Z M 190.46875 140.0625 C 190.46875 141.054688 190.46875 141.546875 190.964844 142.042969 C 191.460938 142.539062 191.460938 142.539062 191.957031 142.539062 C 192.945312 142.539062 193.441406 141.546875 193.441406 140.0625 C 193.441406 138.578125 192.945312 137.585938 191.957031 137.585938 C 191.460938 137.585938 190.964844 137.585938 190.964844 138.082031 C 190.964844 138.578125 190.46875 139.070312 190.46875 140.0625 Z M 190.46875 140.0625 " fill-opacity="1" fill-rule="nonzero"/><path fill="#ffffff" d="M 263.742188 116.78125 C 263.742188 117.277344 263.742188 117.773438 263.742188 118.269531 C 263.742188 118.761719 263.246094 119.257812 263.246094 119.753906 C 262.75 120.25 262.75 120.25 262.253906 120.746094 C 261.761719 120.746094 261.265625 121.238281 260.769531 121.238281 C 260.273438 121.238281 259.78125 121.238281 259.285156 120.746094 C 258.789062 120.746094 258.789062 120.25 258.296875 119.753906 C 257.800781 119.257812 257.800781 118.761719 257.800781 118.269531 C 257.800781 117.773438 257.800781 117.277344 257.800781 116.78125 C 257.800781 116.285156 257.800781 115.792969 257.800781 115.296875 C 257.800781 114.800781 258.296875 114.304688 258.296875 113.808594 C 258.789062 113.316406 258.789062 113.316406 259.285156 112.820312 C 259.78125 112.820312 260.273438 112.324219 260.769531 112.324219 C 261.265625 112.324219 261.761719 112.324219 262.253906 112.820312 C 262.75 112.820312 262.75 113.316406 263.246094 113.808594 C 263.742188 114.304688 263.742188 114.800781 263.742188 115.296875 C 263.742188 115.296875 263.742188 115.792969 263.742188 116.78125 Z M 258.789062 116.78125 C 258.789062 117.773438 258.789062 118.269531 259.285156 118.761719 C 259.78125 119.257812 259.78125 119.257812 260.273438 119.257812 C 261.265625 119.257812 261.761719 118.269531 261.761719 116.78125 C 261.761719 115.296875 261.265625 114.304688 260.273438 114.304688 C 259.78125 114.304688 259.285156 114.304688 259.285156 114.800781 C 258.789062 114.800781 258.789062 115.792969 258.789062 116.78125 Z M 270.175781 112.820312 L 261.761719 126.6875 L 260.273438 126.6875 L 268.691406 112.820312 Z M 273.148438 122.726562 C 273.148438 123.222656 273.148438 123.714844 273.148438 124.210938 C 273.148438 124.707031 272.652344 125.203125 272.652344 125.699219 C 272.15625 126.191406 272.15625 126.191406 271.660156 126.6875 C 271.167969 126.6875 270.671875 127.183594 270.175781 127.183594 C 269.683594 127.183594 269.1875 127.183594 268.691406 126.6875 C 268.195312 126.6875 268.195312 126.191406 267.703125 125.699219 C 267.207031 125.203125 267.207031 124.707031 267.207031 124.210938 C 267.207031 123.714844 267.207031 123.222656 267.207031 122.726562 C 267.207031 122.230469 267.207031 121.734375 267.207031 121.238281 C 267.207031 120.746094 267.703125 120.25 267.703125 119.753906 C 268.195312 119.257812 268.195312 119.257812 268.691406 118.761719 C 269.1875 118.761719 269.679688 118.269531 270.175781 118.269531 C 270.671875 118.269531 271.167969 118.269531 271.660156 118.761719 C 272.15625 118.761719 272.15625 119.257812 272.652344 119.753906 C 273.148438 120.25 273.148438 120.746094 273.148438 121.238281 C 273.148438 121.734375 273.148438 122.230469 273.148438 122.726562 Z M 268.195312 122.726562 C 268.195312 123.714844 268.195312 124.210938 268.691406 124.707031 C 269.1875 125.203125 269.1875 125.203125 269.679688 125.203125 C 270.671875 125.203125 271.167969 124.210938 271.167969 122.726562 C 271.167969 121.238281 270.671875 120.25 269.679688 120.25 C 269.1875 120.25 268.691406 120.25 268.691406 120.746094 C 268.195312 121.238281 268.195312 121.734375 268.195312 122.726562 Z M 268.195312 122.726562 " fill-opacity="1" fill-rule="nonzero"/><path fill="#ffffff" d="M 341.46875 93.996094 C 341.46875 94.492188 341.46875 94.988281 341.46875 95.484375 C 341.46875 95.980469 340.972656 96.472656 340.972656 96.96875 C 340.476562 97.464844 340.476562 97.464844 339.980469 97.960938 C 339.488281 97.960938 338.992188 98.457031 338.496094 98.457031 C 338 98.457031 337.507812 98.457031 337.011719 97.960938 C 336.515625 97.960938 336.515625 97.464844 336.019531 96.96875 C 335.527344 96.472656 335.527344 95.980469 335.527344 95.484375 C 335.527344 94.988281 335.527344 94.492188 335.527344 93.996094 C 335.527344 93.503906 335.527344 93.007812 335.527344 92.511719 C 335.527344 92.015625 336.019531 91.519531 336.019531 91.027344 C 336.515625 90.53125 336.515625 90.53125 337.011719 90.035156 C 337.507812 90.035156 338 89.539062 338.496094 89.539062 C 338.992188 89.539062 339.488281 89.539062 339.980469 90.035156 C 340.476562 90.035156 340.476562 90.53125 340.972656 91.027344 C 341.46875 91.519531 341.46875 92.015625 341.46875 92.511719 C 341.46875 93.007812 341.46875 93.503906 341.46875 93.996094 Z M 337.011719 93.996094 C 337.011719 94.988281 337.011719 95.484375 337.507812 95.980469 C 338 96.472656 338 96.472656 338.496094 96.472656 C 339.488281 96.472656 339.980469 95.484375 339.980469 93.996094 C 339.980469 92.511719 339.488281 91.519531 338.496094 91.519531 C 338 91.519531 337.507812 91.519531 337.507812 92.015625 C 337.011719 92.511719 337.011719 93.007812 337.011719 93.996094 Z M 348.398438 90.035156 L 339.980469 103.902344 L 338.496094 103.902344 L 346.914062 90.035156 Z M 350.875 100.4375 C 350.875 100.933594 350.875 101.425781 350.875 101.921875 C 350.875 102.417969 350.378906 102.914062 350.378906 103.410156 C 349.882812 103.902344 349.882812 103.902344 349.386719 104.398438 C 348.894531 104.398438 348.398438 104.894531 347.902344 104.894531 C 347.40625 104.894531 346.914062 104.894531 346.417969 104.398438 C 345.921875 104.398438 345.921875 103.902344 345.425781 103.410156 C 344.933594 102.914062 344.933594 102.417969 344.933594 101.921875 C 344.933594 101.425781 344.933594 100.933594 344.933594 100.4375 C 344.933594 99.941406 344.933594 99.445312 344.933594 98.949219 C 344.933594 98.457031 345.425781 97.960938 345.425781 97.464844 C 345.921875 96.96875 345.921875 96.96875 346.417969 96.472656 C 346.914062 96.472656 347.40625 95.980469 347.902344 95.980469 C 348.398438 95.980469 348.894531 95.980469 349.386719 96.472656 C 349.882812 96.472656 349.882812 96.96875 350.378906 97.464844 C 350.875 97.960938 350.875 98.457031 350.875 98.949219 C 350.875 98.949219 350.875 99.445312 350.875 100.4375 Z M 345.921875 100.4375 C 345.921875 101.425781 345.921875 101.921875 346.417969 102.417969 C 346.914062 102.914062 346.914062 102.914062 347.40625 102.914062 C 348.398438 102.914062 348.894531 101.921875 348.894531 100.4375 C 348.894531 98.949219 348.398438 97.960938 347.40625 97.960938 C 346.914062 97.960938 346.417969 97.960938 346.417969 98.457031 C 346.417969 98.457031 345.921875 99.445312 345.921875 100.4375 Z M 345.921875 100.4375 " fill-opacity="1" fill-rule="nonzero"/></svg>